<svg xmlns:xlink="http://www.w3.org/1999/xlink" xmlns="http://www.w3.org/2000/svg" xmlns:v="https://vecta.io/nano" viewBox="0 0 88 88" width="88"  height="88" ><style><![CDATA[.D{stroke-width:1.5}.E{stroke-miterlimit:10}.F{stroke-linecap:round}.G{stroke-linejoin:round}.H{stroke:#000}.I{fill-rule:evenodd}]]></style><g><g><path d="M39 29s-1-6 5-6 5 6 5 6 0 5-5 5v6L18.03 58.76C14.88 61.03 16.5 66 20.37 66h47.26c3.88 0 5.5-4.97 2.34-7.24L44 40" fill="none" stroke="#040000" class="D E F G"/><animate attributeName="opacity" values="1;1;1;1;1;1;1;1;1;1;1;1;1;1;1; 0;0;0;0;0;0;0;0;0;0;0;0;0;0;0; 0;0;0;0;0;0;0;0;0;0;0;0;0;0;0; 0;0;0;0;0;0;0;0;0;0;0;0;0;0;0; 0;0;0;0;0;0;0;0;0;0;0;0;0;0;0; 0;0;0;0;0;0;0;0;0;0;0;0;0;0;0; 0;0;0;0;0;0;0;0;0;0;0;0;0;0;0; 0;0;0;0;0;0;0;0;0;0;0;0;0;0;0;" dur="3.6s" repeatCount="indefinite"/></g><g><path d="M57.2 23.3v8c0 .3.1.6.2.8l12.5 19.2-.1.3v.2c-1.3 7.3-12.6 13-25.8 13-13.8-.1-24.9-5.8-26-13.4v-.1l12.5-19.2c.2-.2.2-.5.2-.8v-8h26.5m.6-1.5H30.1c-.5 0-.9.4-.9.9v8.6L16.6 50.6c-.1.2-.2.5-.1.7v.2c1.1 8.4 12.9 14.7 27.4 14.7 14.2 0 25.9-6.1 27.3-14.3l.1-.3c.1-.2.1-.3.1-.5s-.1-.4-.2-.6l-.1-.1-12.4-19.2v-8.6c0-.4-.4-.8-.9-.8z"/><path fill="none" d="M37 32h14" class="D E F H"/><animate attributeName="opacity" values="0;0;0;0;0;0;0;0;0;0;0;0;0;0;0; 1;1;1;1;1;1;1;1;1;1;1;1;1;1;1; 0;0;0;0;0;0;0;0;0;0;0;0;0;0;0; 0;0;0;0;0;0;0;0;0;0;0;0;0;0;0; 0;0;0;0;0;0;0;0;0;0;0;0;0;0;0; 0;0;0;0;0;0;0;0;0;0;0;0;0;0;0; 0;0;0;0;0;0;0;0;0;0;0;0;0;0;0; 0;0;0;0;0;0;0;0;0;0;0;0;0;0;0;" dur="3.6s" repeatCount="indefinite"/></g><g><path d="M36.3 21.6c1 3.2 4.1 5.4 7.7 5.4 3.5 0 6.6-2.3 7.7-5.4C62.3 24 69.3 31.4 70 41.2h-9.4c-.8 0-1.5.7-1.5 1.5v20.1c0 2-1.5 3.7-3.2 3.7H32.2c-1.8 0-3.2-1.7-3.2-3.7V42.7c0-.8-.7-1.5-1.5-1.5H18c.7-9.8 7.7-17.2 18.3-19.6m.6-1.6h-.1c-12 2.4-19.7 10.7-20.2 21.7 0 .2.1.5.2.7.2.2.4.3.6.3h10.2v20.1c0 2.9 2.1 5.2 4.7 5.2h23.6c2.6 0 4.7-2.3 4.7-5.2V42.7h10.2c.2 0 .4-.1.6-.3.1-.2.2-.4.2-.7-.6-11-8.3-19.3-20.3-21.7h-.1c-.4 0-.7.3-.8.7-.6 2.8-3.3 4.9-6.4 4.9-3 0-5.7-2.1-6.4-4.9 0-.4-.4-.7-.7-.7z"/><animate attributeName="opacity" values="0;0;0;0;0;0;0;0;0;0;0;0;0;0;0; 0;0;0;0;0;0;0;0;0;0;0;0;0;0;0; 1;1;1;1;1;1;1;1;1;1;1;1;1;1;1; 0;0;0;0;0;0;0;0;0;0;0;0;0;0;0; 0;0;0;0;0;0;0;0;0;0;0;0;0;0;0; 0;0;0;0;0;0;0;0;0;0;0;0;0;0;0; 0;0;0;0;0;0;0;0;0;0;0;0;0;0;0; 0;0;0;0;0;0;0;0;0;0;0;0;0;0;0;" dur="3.6s" repeatCount="indefinite"/></g><g><path d="M58 18c.94 3.35 2.37 9.7 2.48 17.55 0 .2.01.37.02.53V70h-8.46l-3.5-36.52a1.5 1.5 0 0 0-1.49-1.36h-6.1a1.5 1.5 0 0 0-1.49 1.36L35.97 70H27.5V36.47c.03-.28.05-.58.05-.9.1-7.87 1.54-14.22 2.48-17.57H58m.5-1.5H29.53c-.37 0-.7.24-.8.6-.95 3.27-2.56 10-2.68 18.46a7.03 7.03 0 0 1-.05.84v34.3c0 .45.37.8.83.8h9.75c.43 0 .8-.32.83-.73l3.55-37.15h6.1l3.55 37.15c.04.42.4.73.82.73h9.75c.46 0 .83-.36.83-.8V36.04a7.73 7.73 0 0 1-.02-.5c-.12-8.45-1.73-15.2-2.68-18.45a.872.872 0 0 0-.82-.59z"/><path d="M35 17s1 9-7 9m25.12-8.56s-1 9 7 9" fill="none" class="D E G H"/><animate attributeName="opacity" values="0;0;0;0;0;0;0;0;0;0;0;0;0;0;0; 0;0;0;0;0;0;0;0;0;0;0;0;0;0;0; 0;0;0;0;0;0;0;0;0;0;0;0;0;0;0; 1;1;1;1;1;1;1;1;1;1;1;1;1;1;1; 0;0;0;0;0;0;0;0;0;0;0;0;0;0;0; 0;0;0;0;0;0;0;0;0;0;0;0;0;0;0; 0;0;0;0;0;0;0;0;0;0;0;0;0;0;0; 0;0;0;0;0;0;0;0;0;0;0;0;0;0;0;" dur="3.6s" repeatCount="indefinite"/></g><g><g fill="none" class="D E H"><path d="M23.1 42.6c-1 0-2.1 1.2-2.1 1.2-2.8 2.8-4.4 6.6-4.4 10.6 0 8.2 6.7 14.9 14.9 14.9 4.1 0 7.9-1.6 10.7-4.6l.5-.5h2.7l.5.5c2.8 2.9 6.6 4.6 10.7 4.6 8.2 0 14.9-6.7 14.9-14.9 0-4.3-1.8-8.2-5-11.1l-.5-.4-1-.2c-1 0-1.1.4-1.1.4l-.4.5c-3.5 3.8-9.3 9.1-17.3 13.1l-.3.2h-3.5l-.3-.2c-8.3-4.1-14.4-9.8-17.9-13.8l-1.1-.3z" class="G"/><path d="M23 42s-1-23 4-23 5 23 5 23m32.9.5s1-23-4-23-5 23-5 23" class="F"/></g><animate attributeName="opacity" values="0;0;0;0;0;0;0;0;0;0;0;0;0;0;0; 0;0;0;0;0;0;0;0;0;0;0;0;0;0;0; 0;0;0;0;0;0;0;0;0;0;0;0;0;0;0; 0;0;0;0;0;0;0;0;0;0;0;0;0;0;0; 1;1;1;1;1;1;1;1;1;1;1;1;1;1;1; 0;0;0;0;0;0;0;0;0;0;0;0;0;0;0; 0;0;0;0;0;0;0;0;0;0;0;0;0;0;0; 0;0;0;0;0;0;0;0;0;0;0;0;0;0;0;" dur="3.6s" repeatCount="indefinite"/></g><g><path d="M70.5 70.5h-5.8c-.4 0-.8-.3-.9-.8l-2.9-21-8.8 21.2c-.1.3-.5.6-.8.6h-30c-.2 0-.4-.1-.5-.2-.4-.3-3.6-2.6-3.3-5.9.1-1.1.6-2.2 1.6-3.2l.9-1-1.1-1c-.9-.9-2.5-2.6-2.3-4.9s2.3-4.4 6.3-6.1c14.4-6.2 22-16.4 21.5-28.6v-.8c.1-.2.2-.5.5-.6.2-.1.5-.1.7 0 9.2 3.4 14.8 2.1 14.8 2.1.5-.1 1 .2 1.1.7s-.2 1-.7 1.1c-.2 0-4.9 1.2-12.7-1.1l-1.9-.5-.1 1.9c-.5 11.7-8.6 21.5-22.5 27.6-3.2 1.4-5 3-5.2 4.6-.2 2.1 2.2 3.8 2.3 3.8s.1.1.1.1l.7.8 1.2-.6c.5-.2 1-.5 1.5-.7 7.5-3.2 25.1-12.7 26.9-30.7 0-.2 0-.3.1-.4a.9.9 0 0 1 .6-.6c.1 0 .2-.1.3-.1.2 0 .4.1.5.2 4.3 2.9 9.6 3.5 13.2 3.5 2.6 0 4.4-.3 4.4-.3h.2c.2 0 .4.1.6.2.2.2.3.4.3.7v39.3c.1.3-.3.7-.8.7zm-.6-39.6c-.8.1-2.2.2-4 .2-3.7 0-8.8-.6-13.3-3.2-2.3 18.4-20.1 28-27.7 31.3-.5.2-1 .4-1.4.7l-1 .5-1.3.8-.9 1c-.7.8-1.1 1.5-1.2 2.3-.2 2.2 1.9 4 2.5 4.4H51l8.6-20.8c.2-.6.8-.9 1.4-.9h.2c.7.1 1.2.6 1.3 1.3L65.2 69h4.7V30.9z" class="I"/><animate attributeName="opacity" values="0;0;0;0;0;0;0;0;0;0;0;0;0;0;0; 0;0;0;0;0;0;0;0;0;0;0;0;0;0;0; 0;0;0;0;0;0;0;0;0;0;0;0;0;0;0; 0;0;0;0;0;0;0;0;0;0;0;0;0;0;0; 0;0;0;0;0;0;0;0;0;0;0;0;0;0;0; 1;1;1;1;1;1;1;1;1;1;1;1;1;1;1; 0;0;0;0;0;0;0;0;0;0;0;0;0;0;0; 0;0;0;0;0;0;0;0;0;0;0;0;0;0;0;" dur="3.6s" repeatCount="indefinite"/></g><g><path d="M65 72.5H49.2c-1.1 0-2-.9-2-2V40.1c0-4.4 3.6-8 8-8H59c4.4 0 8 3.6 8 8v30.4c0 1.1-.9 2-2 2zm.5-32.4c0-3.6-2.9-6.5-6.5-6.5h-3.8c-3.6 0-6.5 2.9-6.5 6.5v30.4c0 .3.2.5.5.5H65c.3 0 .5-.2.5-.5V40.1zM42.8 72.5H22c-1.1 0-2-.9-2-2V52.2c0-1.1.9-2 2-2h.6c-.1-.2-.1-.4-.1-.6v-6.9c0-1.1.9-2 2-2h.5V19.9c0-1.4 1.1-2.4 2.4-2.4.3 0 .7.1 1 .3l10.1 5.1c.8.4 1.3 1.2 1.3 2.1v15.7h.5c1.1 0 2 .9 2 2v6.9c0 .2 0 .4-.1.6h.6c1.1 0 2 .9 2 2v18.3c0 1.1-.9 2-2 2zm-4.5-47.6c0-.3-.2-.6-.5-.8L27.7 19h-.4c-.4 0-.9.3-.9.9v20.7h11.9V24.9zm2.5 17.8c0-.3-.2-.5-.5-.5H24.5c-.3 0-.5.2-.5.5v6.9c0 .3.2.5.5.5h15.8c.3 0 .5-.2.5-.5v-6.9zm2.5 9.5c0-.3-.2-.5-.5-.5H22c-.3 0-.5.2-.5.5v18.3c0 .3.2.5.5.5h20.8c.3 0 .5-.2.5-.5V52.2zM28.9 66.3h-.5c-.6 0-1-.4-1-1v-7.9c0-.6.4-1 1-1h.5c.6 0 1 .4 1 1v7.9c0 .5-.4 1-1 1z" class="I"/><animate attributeName="opacity" values="0;0;0;0;0;0;0;0;0;0;0;0;0;0;0; 0;0;0;0;0;0;0;0;0;0;0;0;0;0;0; 0;0;0;0;0;0;0;0;0;0;0;0;0;0;0; 0;0;0;0;0;0;0;0;0;0;0;0;0;0;0; 0;0;0;0;0;0;0;0;0;0;0;0;0;0;0; 0;0;0;0;0;0;0;0;0;0;0;0;0;0;0; 1;1;1;1;1;1;1;1;1;1;1;1;1;1;1; 0;0;0;0;0;0;0;0;0;0;0;0;0;0;0;" dur="3.6s" repeatCount="indefinite"/></g><g><g fill="none" class="D E F G H"><path d="M32.3 36.1h23.4"/><path d="M32.3 41.6h23.4v-5.4c.5-1.3 2-2.9 2.3-7.6.2-3 1.6-8.9 1.6-9.1l.3-1.2-7.4-1.8-.2 1.1s-.3 1.6-1.6 3.1c-1.6 2.1-3.8 3.2-6.7 3.2-6.7 0-8.3-6.1-8.4-6.3l-.2-1.1-7.4 1.9.3 1.2s1.5 6 1.6 8.9c.2 4.5 1.9 6.4 2.3 7.6v5.5l-11.6 25 .6.6c.2 0 5.3 4.3 22.8 4.3s22.6-4.3 22.8-4.4l.6-.6-11.7-24.9"/></g><animate attributeName="opacity" values="0;0;0;0;0;0;0;0;0;0;0;0;0;0;0; 0;0;0;0;0;0;0;0;0;0;0;0;0;0;0; 0;0;0;0;0;0;0;0;0;0;0;0;0;0;0; 0;0;0;0;0;0;0;0;0;0;0;0;0;0;0; 0;0;0;0;0;0;0;0;0;0;0;0;0;0;0; 0;0;0;0;0;0;0;0;0;0;0;0;0;0;0; 0;0;0;0;0;0;0;0;0;0;0;0;0;0;0; 1;1;1;1;1;1;1;1;1;1;1;1;1;1;1;" dur="3.6s" repeatCount="indefinite"/></g><animateTransform attributeName="transform" type="translate" values="0,0; 0,-5; 0,-5; 0,-5; 0,-5; 0,-5; 0,-5; 0,-5; 0,-5; 0,-5; 0,-5; 0,-5; 0,0; 0,5; 0,0" dur="0.5s" repeatCount="indefinite"/><animate attributeName="opacity" values="0.5;1;1;1;1;1;1;1;1;1;1;1;1;1;0.5;" dur="0.5s" repeatCount="indefinite"/></g></svg>