<svg width="24" height="24" viewBox="0 0 24 24" fill="none" xmlns="http://www.w3.org/2000/svg">
<path fill-rule="evenodd" clip-rule="evenodd" d="M12 3C11.0054 3 10.0516 3.39509 9.34835 4.09835C8.64509 4.80161 8.25 5.75544 8.25 6.75V7.5H15.75V6.75C15.75 5.75544 15.3549 4.80161 14.6517 4.09835C13.9484 3.39509 12.9946 3 12 3ZM6.75 6.75V7.5H3.75C3.35217 7.5 2.97064 7.65804 2.68934 7.93934C2.40804 8.22064 2.25 8.60217 2.25 9V19.125C2.25 20.9567 3.79329 22.5 5.625 22.5H18.375C20.1846 22.5 21.75 21.0371 21.75 19.1836V9C21.75 8.60218 21.592 8.22065 21.3107 7.93934C21.0294 7.65804 20.6478 7.5 20.25 7.5H17.25V6.75C17.25 5.35761 16.6969 4.02226 15.7123 3.03769C14.7277 2.05312 13.3924 1.5 12 1.5C10.6076 1.5 9.27226 2.05312 8.28769 3.03769C7.30312 4.02226 6.75 5.35761 6.75 6.75ZM3.75 9H7.5H16.5H20.25V19.1836C20.25 20.1651 19.4004 21 18.375 21H5.625C4.62171 21 3.75 20.1283 3.75 19.125L3.75 9ZM8.25 10.5C8.25 10.0858 7.91421 9.75 7.5 9.75C7.08579 9.75 6.75 10.0858 6.75 10.5V11.25C6.75 12.6424 7.30312 13.9777 8.28769 14.9623C9.27226 15.9469 10.6076 16.5 12 16.5C13.3924 16.5 14.7277 15.9469 15.7123 14.9623C16.6969 13.9777 17.25 12.6424 17.25 11.25V10.5C17.25 10.0858 16.9142 9.75 16.5 9.75C16.0858 9.75 15.75 10.0858 15.75 10.5V11.25C15.75 12.2446 15.3549 13.1984 14.6517 13.9017C13.9484 14.6049 12.9946 15 12 15C11.0054 15 10.0516 14.6049 9.34835 13.9017C8.64509 13.1984 8.25 12.2446 8.25 11.25V10.5Z" fill="black"/>
</svg>
